<svg width="417" height="393" viewBox="0 0 417 393" fill="none" xmlns="http://www.w3.org/2000/svg">
<circle cx="220.765" cy="196.235" r="196.235" fill="#E7484A"/>
<path d="M330.584 98.9853C335.251 99.652 338.418 101.069 340.084 103.235C341.918 105.402 342.834 108.235 342.834 111.735C342.834 123.235 336.668 128.569 324.334 127.735L315.584 126.985C305.751 126.152 295.918 125.485 286.084 124.985C276.418 124.485 266.251 124.235 255.584 124.235H244.334C242.334 148.902 240.251 171.402 238.084 191.735L281.084 190.985C287.251 190.985 291.334 192.069 293.334 194.235C295.501 196.402 296.584 199.319 296.584 202.985C296.584 208.652 294.918 213.152 291.584 216.485C288.251 219.652 283.501 221.235 277.334 221.235H234.584L233.084 231.985C229.584 259.485 222.084 279.069 210.584 290.735C199.251 302.402 183.584 308.235 163.584 308.235C152.251 308.235 141.834 305.819 132.334 300.985C122.834 295.985 115.834 289.985 111.334 282.985C109.501 280.152 108.584 276.735 108.584 272.735C108.584 268.735 109.501 265.235 111.334 262.235C113.334 259.235 115.751 257.735 118.584 257.735C120.584 257.735 122.501 258.402 124.334 259.735C126.334 261.069 128.834 263.652 131.834 267.485C139.834 277.985 149.751 283.235 161.584 283.235C171.084 283.235 179.001 279.402 185.334 271.735C191.834 263.902 196.001 251.652 197.834 234.985L199.334 221.235H187.334C183.501 221.235 180.168 220.152 177.334 217.985C174.668 215.819 173.334 212.735 173.334 208.735C173.334 203.569 174.668 199.652 177.334 196.985C180.001 194.152 183.918 192.735 189.084 192.735C193.751 192.735 198.334 192.652 202.834 192.485C204.834 174.152 207.001 151.902 209.334 125.735C191.334 127.402 178.668 130.319 171.334 134.485C164.001 138.652 160.334 144.819 160.334 152.985C160.334 158.652 162.001 164.069 165.334 169.235C166.334 170.735 166.834 172.235 166.834 173.735C166.834 176.735 165.168 179.402 161.834 181.735C158.501 183.902 154.751 184.985 150.584 184.985C146.084 184.985 142.251 183.652 139.084 180.985C137.084 179.319 135.168 175.902 133.334 170.735C131.501 165.569 130.584 159.819 130.584 153.485C130.584 132.819 141.168 117.819 162.334 108.485C183.668 99.152 214.751 94.4853 255.584 94.4853C283.918 94.4853 308.918 95.9853 330.584 98.9853Z" fill="white"/>
</svg>
