
<svg width="161" height="160" viewBox="0 0 161 160" fill="none" xmlns="http://www.w3.org/2000/svg">
<circle cx="80.4118" cy="80" r="80" fill="#E7484A"/>
<path d="M123.032 38.613C124.955 38.8877 126.26 39.4713 126.946 40.364C127.702 41.2567 128.079 42.424 128.079 43.866C128.079 48.604 125.539 50.8013 120.457 50.458L116.852 50.149C112.801 49.8057 108.75 49.531 104.698 49.325C100.716 49.119 96.5271 49.016 92.1324 49.016H87.4974C86.6734 59.1787 85.8151 68.4487 84.9224 76.826L102.638 76.517C105.179 76.517 106.861 76.9633 107.685 77.856C108.578 78.7487 109.024 79.9503 109.024 81.461C109.024 83.7957 108.338 85.6497 106.964 87.023C105.591 88.3277 103.634 88.98 101.093 88.98H83.4804L82.8624 93.409C81.4204 104.739 78.3304 112.807 73.5924 117.614C68.9231 122.421 62.4684 124.824 54.2284 124.824C49.5591 124.824 45.2674 123.828 41.3534 121.837C37.4394 119.777 34.5554 117.305 32.7014 114.421C31.9461 113.254 31.5684 111.846 31.5684 110.198C31.5684 108.55 31.9461 107.108 32.7014 105.872C33.5254 104.636 34.5211 104.018 35.6884 104.018C36.5124 104.018 37.3021 104.293 38.0574 104.842C38.8814 105.391 39.9114 106.456 41.1474 108.035C44.4434 112.361 48.5291 114.524 53.4044 114.524C57.3184 114.524 60.5801 112.945 63.1894 109.786C65.8674 106.559 67.5841 101.512 68.3394 94.645L68.9574 88.98H64.0134C62.4341 88.98 61.0608 88.5337 59.8934 87.641C58.7948 86.7483 58.2454 85.478 58.2454 83.83C58.2454 81.7013 58.7948 80.0877 59.8934 78.989C60.9921 77.8217 62.6058 77.238 64.7344 77.238C66.6571 77.238 68.5454 77.2037 70.3994 77.135C71.2234 69.5817 72.1161 60.4147 73.0774 49.634C65.6614 50.3207 60.4428 51.5223 57.4214 53.239C54.4001 54.9557 52.8894 57.4963 52.8894 60.861C52.8894 63.1957 53.5761 65.4273 54.9494 67.556C55.3614 68.174 55.5674 68.792 55.5674 69.41C55.5674 70.646 54.8808 71.7447 53.5074 72.706C52.1341 73.5987 50.5891 74.045 48.8724 74.045C47.0184 74.045 45.4391 73.4957 44.1344 72.397C43.3104 71.7103 42.5208 70.3027 41.7654 68.174C41.0101 66.0453 40.6324 63.6763 40.6324 61.067C40.6324 52.5523 44.9928 46.3723 53.7134 42.527C62.5028 38.6817 75.3091 36.759 92.1324 36.759C103.806 36.759 114.106 37.377 123.032 38.613Z" fill="white"/>
</svg>
