<svg width="1440" height="873" viewBox="0 0 1440 873" fill="none" xmlns="http://www.w3.org/2000/svg">
<path d="M-2 13.3098C-2 13.3098 419.5 158.31 728 74.3098C1036.5 -9.69026 1380 -10.1903 1438 13.3097C1496 36.8097 1438 872.31 1438 872.31L-2 872.31L-2 13.3098Z" fill="url(#paint0_linear)" fill-opacity="0.2"/>
<g clip-path="url(#clip0)">
<path d="M175.424 650.975C173.907 650.023 171.906 650.481 170.954 651.997L166.078 659.764C165.126 661.28 165.584 663.281 167.1 664.234C168.617 665.186 170.618 664.728 171.57 663.212L176.446 655.445C177.398 653.928 176.94 651.927 175.424 650.975Z" fill="#D80027" fill-opacity="0.05"/>
<path d="M99.5691 668.32C98.0527 667.369 96.0514 667.826 95.0991 669.343L90.2233 677.109C89.2713 678.626 89.729 680.627 91.2455 681.579C92.7626 682.532 94.7635 682.074 95.7155 680.557L100.591 672.791C101.543 671.274 101.086 669.273 99.5691 668.32Z" fill="#D80027" fill-opacity="0.05"/>
<path d="M156.73 641.946C155.213 640.994 153.212 641.452 152.26 642.968L147.384 650.735C146.432 652.251 146.89 654.253 148.406 655.205C149.923 656.157 151.924 655.699 152.876 654.183L157.752 646.416C158.704 644.9 158.246 642.898 156.73 641.946Z" fill="#D80027" fill-opacity="0.05"/>
<path d="M118.802 650.619C117.286 649.667 115.285 650.125 114.332 651.641L109.457 659.408C108.505 660.924 108.962 662.925 110.479 663.878C111.996 664.83 113.997 664.372 114.949 662.856L119.825 655.089C120.777 653.572 120.319 651.571 118.802 650.619Z" fill="#D80027" fill-opacity="0.05"/>
<path d="M137.496 659.648C135.98 658.696 133.979 659.154 133.026 660.67L128.151 668.436C127.199 669.953 127.656 671.954 129.173 672.907C130.69 673.859 132.691 673.401 133.643 671.884L138.519 664.118C139.471 662.601 139.013 660.6 137.496 659.648Z" fill="#D80027" fill-opacity="0.05"/>
<path d="M231.139 707.104C229.943 701.876 224.717 698.595 219.489 699.79L216.328 700.513L213.999 690.326C214.103 690.184 214.211 690.045 214.312 689.899C215.936 687.56 219.948 685.384 222.734 684.71C224.474 684.289 225.544 682.536 225.123 680.796C224.705 679.069 222.977 678.003 221.249 678.398C221.236 678.401 221.222 678.404 221.209 678.407C218.505 679.062 215.066 680.606 212.278 682.799L210.383 674.514C213.871 672.059 215.524 667.512 213.969 663.239C203.388 634.126 172.604 617.387 142.361 624.303L113.284 630.952C83.0412 637.867 62.5914 666.322 65.715 697.139C66.1701 701.65 69.6191 705.039 73.8449 705.736L75.7074 713.882C72.2442 713.178 68.4696 713.292 65.7056 713.966C63.9655 714.388 62.897 716.141 63.3189 717.882C63.7376 719.608 65.4655 720.673 67.1918 720.278C67.2057 720.275 67.2199 720.271 67.2341 720.268C70.0504 719.578 74.7073 719.756 77.2933 721.218C77.3278 721.238 77.3637 721.256 77.3984 721.275L79.7903 731.735L76.6294 732.458C71.391 733.656 68.1178 738.869 69.3158 744.108C70.3901 748.806 74.7196 751.93 79.3805 751.647C79.0877 753.766 79.5217 755.909 80.6694 757.776C87.2279 768.43 99.8317 773.715 112.033 770.925L204.322 749.821C216.523 747.031 225.578 736.794 226.854 724.346C227.076 722.167 226.536 720.05 225.352 718.27C229.592 716.538 232.235 711.899 231.139 707.104ZM72.1663 696.486C69.3721 668.917 87.67 643.461 114.729 637.273L143.807 630.624C170.866 624.436 198.409 639.41 207.875 665.455C208.521 667.23 207.459 669.146 205.726 669.666C205.706 669.672 205.685 669.679 205.665 669.686C205.612 669.703 205.558 669.717 205.504 669.73L76.1594 699.307C74.2978 699.732 72.3648 698.45 72.1663 696.486ZM194.281 689.564C185.887 684.819 176.555 686.953 171.058 694.874C167.468 700.047 161.834 701.335 156.354 698.237C147.96 693.491 138.628 695.625 133.13 703.547C129.541 708.72 123.907 710.008 118.426 706.909C110.033 702.164 100.7 704.298 95.2027 712.221C92.1612 716.607 87.6838 718.217 83.0017 716.691L80.3293 705.005L204.225 676.674L206.939 688.543C203.42 691.709 198.792 692.114 194.281 689.564ZM208.507 695.398L210.007 701.959L86.1112 730.29L84.5894 723.634C86.4335 723.835 88.255 723.73 90.0072 723.329C94.0859 722.396 97.7891 719.87 100.531 715.917C104.12 710.744 109.755 709.456 115.235 712.554C123.629 717.3 132.962 715.166 138.458 707.244C142.048 702.071 147.682 700.783 153.162 703.881C161.556 708.627 170.889 706.493 176.386 698.571C179.975 693.398 185.609 692.111 191.09 695.209C196.933 698.513 203.313 698.48 208.507 695.398ZM220.403 723.687C219.411 733.367 212.367 741.329 202.877 743.5L110.587 764.603C101.096 766.774 91.2925 762.664 86.1928 754.379C85.0939 752.591 86.3076 750.2 88.3806 749.726L216.41 720.45C218.491 719.974 220.615 721.612 220.403 723.687ZM222.38 712.433L79.5203 745.1C77.7776 745.499 76.0355 744.405 75.637 742.663C75.238 740.918 76.3299 739.178 78.0749 738.779L220.934 706.112C222.677 705.713 224.419 706.807 224.818 708.549C225.217 710.294 224.125 712.034 222.38 712.433Z" fill="#D80027" fill-opacity="0.05"/>
</g>
<g clip-path="url(#clip1)">
<path d="M317.298 409.033L311.828 408.2L310.999 413.671L316.469 414.503L317.298 409.033Z" fill="#D80027" fill-opacity="0.05"/>
<path d="M358.331 468.634L319.527 462.523L330.524 414.032C330.691 413.283 330.542 412.497 330.112 411.861C329.66 411.25 328.995 410.832 328.25 410.689L322.78 409.858L321.946 415.328L324.477 415.726L322.284 425.398L313.667 428.547C304.697 431.802 294.722 430.677 286.702 425.508L289.093 410.325L305.516 412.824L306.349 407.355L289.961 404.861L291.908 392.501L323.585 378.727L321.379 373.638L288.307 388.033C287.44 388.411 286.826 389.206 286.679 390.14L284.492 404.028L246.217 398.202C244.707 397.973 243.297 399.012 243.068 400.523C243.059 400.579 243.052 400.635 243.047 400.691L238.907 446.778C236.854 449.429 235.088 452.291 233.642 455.316C230.197 445.981 221.978 439.236 212.151 437.678C210.642 437.44 209.226 438.471 208.988 439.98C208.149 445.283 208.891 450.715 211.121 455.598C209.846 455.994 208.628 456.555 207.498 457.268L206.595 457.843C195.62 464.793 189.513 477.346 190.819 490.271L191.473 496.986C192.292 505.418 196.194 513.252 202.43 518.986C207.803 523.965 215.523 525.489 222.385 522.927L222.275 522.629C227.152 524.948 232.29 526.672 237.58 527.761C238.122 527.875 238.669 527.961 239.233 528.061L239.197 528.285L275.233 533.96C315.939 540.407 354.165 512.634 360.612 471.928C360.619 471.884 360.626 471.84 360.633 471.796C360.871 470.287 359.84 468.871 358.331 468.634ZM317.388 469.313L317.622 467.824L344.837 472.109C340.296 494.098 323.733 511.64 302.041 517.436C296.63 518.876 291.039 519.533 285.441 519.389C290.103 516.464 294.365 512.945 298.12 508.921C308.366 497.947 315.079 484.148 317.388 469.313ZM283.631 409.493L281.551 422.705C272.979 418.809 263.223 418.422 254.369 421.626L246.458 424.522L248.294 404.113L283.631 409.493ZM247.57 445.431L247.972 445.052L244.906 441.811L245.909 430.624L256.259 426.819C265.309 423.527 275.382 424.698 283.435 429.978C292.951 436.227 304.86 437.614 315.557 433.72L320.808 431.8L316.691 449.981C316.155 449.416 315.55 448.921 314.89 448.508L311.075 446.162C309.039 444.904 306.54 444.644 304.289 445.458C301.982 446.286 300.181 448.125 299.403 450.449C293.862 466.78 282.719 480.623 267.948 489.524C268.295 481.066 265.498 472.779 260.096 466.262L259.413 465.437C254.67 459.658 246.403 458.237 240.003 462.101L236.11 464.428C238.135 457.173 242.096 450.606 247.57 445.431ZM229.837 465.289C220.398 462.44 214.007 453.66 214.197 443.803C223.633 446.654 230.023 455.432 229.837 465.289ZM206.176 514.919C200.942 510.104 197.667 503.528 196.978 496.45L196.322 489.737C195.228 478.881 200.363 468.34 209.585 462.508L210.487 461.934C211.588 461.259 212.814 460.813 214.091 460.622C218.371 466.415 224.76 470.288 231.875 471.404C232.052 471.413 232.23 471.406 232.406 471.381C233.975 471.526 235.55 471.173 236.908 470.373L242.829 466.825C246.89 464.375 252.134 465.278 255.142 468.946L255.824 469.77C261.106 476.138 263.39 484.472 262.091 492.642C250.285 498.426 237.138 500.917 224.035 499.853L211.789 498.858C210.343 498.74 209.052 499.759 208.831 501.192L207.263 511.147C207.113 512.121 207.492 513.101 208.258 513.721L208.603 514.004C210.634 515.655 212.761 517.186 214.971 518.589C211.699 518.44 208.585 517.14 206.176 514.919ZM238.697 522.342L238.693 522.344C229.319 520.407 220.52 516.327 212.987 510.421L213.906 504.582L223.584 505.366C259.581 508.307 292.975 486.418 304.638 452.236C304.877 451.508 305.438 450.93 306.159 450.67C306.827 450.425 307.57 450.502 308.174 450.878L311.988 453.226C313.272 454.012 313.956 455.495 313.718 456.982L311.91 468.459C309.771 482.203 303.553 494.988 294.062 505.157C279.912 520.222 258.889 526.747 238.697 522.342ZM276.093 528.494L267.385 527.123C270.608 526.299 273.761 525.223 276.816 523.906L276.776 524.16C285.672 525.578 294.766 525.108 303.469 522.78C327.272 516.418 345.417 497.12 350.302 472.97L354.683 473.66C347.48 510.089 312.769 534.307 276.093 528.494Z" fill="#D80027" fill-opacity="0.05"/>
<path d="M326.55 474.831L321.085 473.97L320.224 479.435L325.69 480.296L326.55 474.831Z" fill="#D80027" fill-opacity="0.05"/>
<path d="M314.049 500.866L308.584 500.006L307.723 505.471L313.188 506.332L314.049 500.866Z" fill="#D80027" fill-opacity="0.05"/>
<path d="M323.968 491.227L318.503 490.366L317.642 495.831L323.108 496.692L323.968 491.227Z" fill="#D80027" fill-opacity="0.05"/>
</g>
<g opacity="0.05" clip-path="url(#clip2)">
<path d="M210.224 246.495L55.8113 290.113C54.3417 290.529 53.4851 292.055 53.901 293.528C62.609 324.355 94.773 342.352 125.602 333.643L173.524 320.106C204.35 311.398 222.347 279.232 213.639 248.405C213.223 246.933 211.697 246.079 210.224 246.495ZM172.019 314.781L124.098 328.318C97.0997 335.945 68.9674 320.934 60.0467 294.666L208.997 252.591C215.138 279.643 199.018 307.155 172.019 314.781Z" fill="#D80027"/>
<path d="M170.892 188.629C170.838 188.434 170.78 188.241 170.678 187.95C169.021 183.652 164.962 180.883 160.571 180.655L162.733 176.79C166.513 170.194 164.724 161.857 158.517 157.366C151.937 152.797 142.869 154.444 138.302 161.021C138.043 161.396 137.799 161.784 137.564 162.204L135.228 166.452C132.728 162.854 128.243 160.867 123.648 161.717C117.66 163.061 113.946 168.996 115.286 174.948C115.33 175.146 115.382 175.341 115.436 175.532L116.589 179.614C114.767 179.148 112.807 179.138 110.871 179.682C110.679 179.736 110.483 179.797 110.192 179.897C104.65 182.035 101.652 188.162 103.35 193.806L104.373 197.427C102.514 196.954 100.553 196.973 98.6572 197.506C98.4656 197.56 98.2727 197.62 97.9817 197.72C92.4366 199.858 89.4388 205.986 91.1365 211.63L102.289 251.112C102.705 252.584 104.234 253.437 105.704 253.022L150.963 240.237C156.836 238.578 160.263 232.453 158.603 226.586C158.055 224.647 157.022 222.976 155.669 221.665L159.266 220.649C165.029 219.191 168.664 213.366 167.562 207.419C167.064 205.219 165.942 203.323 164.423 201.872C166.738 200.93 168.652 199.248 169.891 197.041C171.336 194.465 171.694 191.478 170.892 188.629ZM165.067 194.333C164.343 195.619 163.165 196.547 161.741 196.949C161.738 196.95 161.736 196.95 161.733 196.951L153.746 199.207C152.274 199.623 151.42 201.152 151.836 202.622C152.251 204.091 153.778 204.948 155.25 204.532L155.545 204.457C158.523 203.786 161.491 205.661 162.141 208.531C162.698 211.541 160.85 214.515 157.806 215.309L144.947 218.941C143.475 219.357 142.622 220.886 143.037 222.356C143.452 223.825 144.979 224.682 146.451 224.266C149.388 223.437 152.451 225.15 153.28 228.087C154.11 231.023 152.396 234.086 149.459 234.916L106.862 246.949L96.4478 210.08C95.5647 207.147 97.1156 203.987 99.8702 202.921L100.158 202.831C103.09 202.006 106.147 203.718 106.977 206.646L106.982 206.665C107.397 208.134 108.924 208.991 110.394 208.576C110.396 208.575 110.396 208.575 110.396 208.575C111.866 208.16 112.72 206.634 112.307 205.163L112.307 205.161L108.661 192.256C107.778 189.323 109.329 186.163 112.084 185.097L112.369 185.008C115.305 184.185 118.361 185.897 119.192 188.827L119.197 188.843C119.612 190.313 121.139 191.169 122.608 190.754C122.611 190.753 122.611 190.753 122.611 190.753C124.081 190.338 124.934 188.812 124.522 187.342L124.521 187.339L120.761 174.028L120.686 173.73C120.012 170.755 121.829 167.804 124.756 167.135C127.773 166.579 130.745 168.462 131.536 171.476L132.161 173.685C132.465 174.763 133.393 175.554 134.51 175.681C135.619 175.81 136.708 175.25 137.246 174.264L142.398 164.894C142.54 164.644 142.69 164.403 142.852 164.171C145.681 160.101 151.29 159.085 155.322 161.879C159.182 164.675 160.304 169.901 157.921 174.061L152.897 183.041C152.351 184.017 152.445 185.227 153.139 186.106C153.829 186.983 154.987 187.358 156.063 187.054L158.272 186.43C158.328 186.414 158.368 186.403 158.413 186.39C161.321 185.569 164.425 187.113 165.476 189.84L165.567 190.13C165.966 191.553 165.79 193.045 165.067 194.333Z" fill="#D80027"/>
<path d="M144.563 173.887L91.0773 269.487L95.9057 272.189L149.392 176.588L144.563 173.887Z" fill="#D80027"/>
<path d="M134.417 181.684L129.092 183.188L132.852 196.5L138.177 194.995L134.417 181.684Z" fill="#D80027"/>
<path d="M122.203 199.508L116.878 201.012L121.391 216.986L126.715 215.482L122.203 199.508Z" fill="#D80027"/>
<path d="M109.982 217.305L104.657 218.809L109.921 237.445L115.246 235.941L109.982 217.305Z" fill="#D80027"/>
<path d="M148.074 189.325L134.762 193.085L136.266 198.41L149.578 194.649L148.074 189.325Z" fill="#D80027"/>
<path d="M139.267 209.032L123.293 213.545L124.797 218.869L140.771 214.357L139.267 209.032Z" fill="#D80027"/>
<path d="M130.468 228.766L111.832 234.031L113.336 239.356L131.972 234.091L130.468 228.766Z" fill="#D80027"/>
<path d="M77.7388 187.966C77.7348 187.961 77.7276 187.958 77.7236 187.953C72.378 183.389 64.3108 184.017 59.7492 189.362C59.6059 189.527 59.4673 189.698 59.3118 189.9L58.5594 190.9L57.4511 190.497C51.2953 187.329 43.6877 189.677 40.4097 195.8C38.8037 198.795 38.4598 202.238 39.4452 205.493C40.4307 208.748 42.621 211.423 45.6127 213.028C46.4835 213.495 47.4087 213.86 48.3655 214.113L51.1022 215.231L51.4873 216.595C53.5607 223.935 61.2191 228.219 68.5591 226.146C75.8991 224.072 80.183 216.411 78.1069 209.072L77.7218 207.709L79.5585 205.204C83.5636 199.895 82.7613 192.323 77.7388 187.966ZM75.1188 201.904L72.4631 205.529C71.961 206.214 71.8017 207.096 72.0333 207.916L72.7853 210.578C74.0292 214.982 71.458 219.577 67.0547 220.821C62.6513 222.065 58.0556 219.494 56.8117 215.091L56.0597 212.428C55.828 211.608 55.2338 210.94 54.4446 210.619L50.2847 208.919C50.1611 208.868 50.0316 208.827 49.9018 208.795C49.3209 208.651 48.7598 208.436 48.2309 208.151C46.5374 207.244 45.2991 205.731 44.7425 203.893C44.1859 202.055 44.3807 200.109 45.2879 198.415C46.2459 196.626 47.8589 195.406 49.6745 194.893C51.4049 194.404 53.3193 194.556 55.0275 195.474C55.1421 195.533 55.2612 195.589 55.3861 195.634L58.59 196.799C59.7312 197.215 61.0125 196.836 61.7444 195.865L63.9542 192.961C65.2066 191.492 66.9545 190.607 68.8773 190.452C70.7951 190.301 72.6588 190.905 74.1238 192.152C76.9519 194.613 77.3981 198.88 75.1188 201.904Z" fill="#D80027"/>
<path d="M89.2101 174.302L83.8854 175.806L85.3894 181.13L90.7142 179.626L89.2101 174.302Z" fill="#D80027"/>
<path d="M129.249 254.983L123.925 256.487L125.429 261.812L130.753 260.308L129.249 254.983Z" fill="#D80027"/>
<path d="M172.849 165.064L174.353 170.389C177.289 169.559 180.352 171.272 181.181 174.209C182.011 177.145 180.297 180.208 177.361 181.038L178.865 186.362C184.738 184.703 188.165 178.578 186.506 172.705C184.847 166.832 178.721 163.405 172.849 165.064Z" fill="#D80027"/>
<path d="M46.5001 226.642L41.1757 228.146L42.6798 233.47L48.0042 231.966L46.5001 226.642Z" fill="#D80027"/>
<path d="M38.1725 217.495L32.848 218.999L34.3522 224.324L39.6766 222.82L38.1725 217.495Z" fill="#D80027"/>
<path d="M152.466 245.562C146.593 247.221 143.166 253.346 144.825 259.219L150.15 257.715C149.321 254.778 151.034 251.715 153.97 250.886C156.907 250.056 159.97 251.77 160.799 254.707L166.124 253.203C164.465 247.33 158.339 243.903 152.466 245.562Z" fill="#D80027"/>
<path d="M73.816 241.906L73.4806 242.001C70.9973 237.749 65.8651 235.528 60.9107 236.928C55.9563 238.327 52.7419 242.906 52.853 247.828L52.5176 247.923C46.6447 249.582 43.2176 255.707 44.8766 261.58C46.5356 267.453 52.6611 270.88 58.534 269.221L79.8324 263.205C85.7053 261.546 89.1324 255.42 87.4734 249.547C85.8144 243.674 79.6889 240.247 73.816 241.906ZM78.329 257.883L57.0303 263.899C54.0937 264.729 51.031 263.015 50.2015 260.079C49.372 257.142 51.0855 254.079 54.0221 253.25L56.6845 252.498C58.1541 252.083 59.0099 250.553 58.5948 249.083C57.7653 246.147 59.4789 243.084 62.4155 242.255C65.3521 241.425 68.4149 243.139 69.2443 246.075C69.6594 247.545 71.1892 248.401 72.6588 247.985L75.3211 247.233C78.2578 246.404 81.3205 248.117 82.15 251.054C82.9789 253.991 81.2653 257.053 78.329 257.883Z" fill="#D80027"/>
<path d="M73.0036 259.384L62.3544 262.392C60.8848 262.808 60.029 264.337 60.4441 265.807L63.4523 276.456C63.8682 277.928 65.3972 278.781 66.8667 278.366L77.5159 275.358C78.9855 274.943 79.8421 273.416 79.4262 271.944L76.418 261.295C76.0029 259.825 74.4731 258.969 73.0036 259.384ZM73.3494 270.785L68.025 272.29L66.5209 266.965L71.8457 265.461L73.3497 270.785L73.3494 270.785Z" fill="#D80027"/>
<path d="M185.226 219.059C180.823 220.303 178.252 224.899 179.496 229.302C180.74 233.706 185.335 236.277 189.739 235.033C194.142 233.789 196.713 229.193 195.469 224.79C194.225 220.387 189.63 217.815 185.226 219.059ZM188.235 229.711C186.766 230.126 185.235 229.268 184.821 227.801C184.406 226.334 185.262 224.801 186.731 224.386C188.201 223.971 189.731 224.827 190.146 226.296C190.561 227.766 189.705 229.296 188.235 229.711Z" fill="#D80027"/>
<path d="M182.218 208.41C171.944 211.312 165.944 222.034 168.847 232.31C171.749 242.587 182.473 248.584 192.747 245.682C203.021 242.78 209.021 232.058 206.119 221.782C203.216 211.505 192.492 205.508 182.218 208.41ZM191.244 240.36C183.903 242.434 176.244 238.146 174.172 230.809C172.098 223.469 176.383 215.81 183.723 213.737C191.063 211.664 198.721 215.948 200.795 223.288C202.868 230.628 198.584 238.287 191.244 240.36Z" fill="#D80027"/>
</g>
<g clip-path="url(#clip3)">
<path d="M1303.05 720.731L1261.77 711.482C1262.16 710.472 1262.26 709.354 1261.93 708.286C1261.42 706.609 1260.04 705.328 1258.33 704.945L1155.3 681.861C1153.59 681.478 1151.79 682.048 1150.61 683.346C1149.43 684.653 1149.04 686.503 1149.59 688.174L1152.38 696.678C1152.99 698.533 1153.09 700.517 1152.66 702.423L1152.38 703.694C1150.27 713.081 1156.16 722.422 1165.51 724.515L1230.89 739.164C1240.05 741.216 1249.16 735.544 1251.5 726.481L1299.36 737.203C1303.9 738.221 1308.42 735.353 1309.44 730.812C1310.45 726.271 1307.59 721.749 1303.05 720.731ZM1232.12 733.674L1166.74 719.025C1163.94 718.398 1161.64 716.772 1160.02 714.637L1190.44 721.451C1191.95 721.79 1193.46 720.839 1193.8 719.32C1194.14 717.802 1193.18 716.299 1191.67 715.96L1157.67 708.342C1157.6 707.404 1157.63 706.452 1157.8 705.489L1182.09 710.93C1183.6 711.269 1185.11 710.317 1185.45 708.799C1185.79 707.281 1184.83 705.778 1183.32 705.439L1158.52 699.883C1158.5 698.204 1158.26 696.532 1157.73 694.923L1155.34 687.637L1255.83 710.152L1250.56 715.72C1250.09 716.208 1249.67 716.732 1249.27 717.277C1249.03 717.599 1248.83 717.942 1248.62 718.281C1248.49 718.489 1248.35 718.686 1248.23 718.898C1247.97 719.356 1247.74 719.83 1247.53 720.31C1247.48 720.412 1247.44 720.51 1247.39 720.613C1247.17 721.14 1246.98 721.676 1246.81 722.227C1246.8 722.265 1246.78 722.299 1246.77 722.336L1245.91 725.225L1245.99 725.244C1244.32 731.278 1238.25 735.047 1232.12 733.674ZM1300.59 731.713L1253.44 721.15C1253.46 721.122 1253.48 721.092 1253.5 721.064C1253.83 720.548 1254.2 720.063 1254.61 719.625C1254.62 719.615 1254.63 719.605 1254.64 719.596L1257.72 716.344L1301.82 726.224C1303.33 726.564 1304.29 728.069 1303.95 729.585C1303.61 731.101 1302.1 732.052 1300.59 731.713Z" fill="#D80027" fill-opacity="0.05"/>
<path d="M1239.48 772.807L1226.02 769.79C1231.63 767.217 1234.91 765.179 1236.07 762.031C1237.33 758.607 1235.76 755.275 1233.17 749.755C1232.66 748.681 1232.11 747.508 1231.52 746.217L1230.36 743.656L1227.8 744.82C1221.94 747.48 1218.55 749.536 1217.37 752.757C1216.11 756.18 1217.67 759.512 1220.27 765.033C1220.78 766.107 1221.33 767.28 1221.91 768.57L1222.06 768.904L1193.76 762.563C1199.37 759.99 1202.66 757.952 1203.81 754.804C1205.07 751.38 1203.51 748.048 1200.91 742.528C1200.4 741.454 1199.85 740.28 1199.27 738.99L1198.1 736.429L1195.54 737.593C1189.69 740.252 1186.29 742.309 1185.11 745.53C1183.85 748.953 1185.42 752.285 1188.01 757.806C1188.52 758.879 1189.07 760.053 1189.66 761.343L1189.81 761.677L1160.82 755.181C1166.42 752.609 1169.71 750.571 1170.87 747.422C1172.12 743.999 1170.56 740.667 1167.96 735.146C1167.46 734.073 1166.9 732.899 1166.32 731.609L1165.15 729.047L1162.59 730.212C1156.74 732.871 1153.34 734.927 1152.16 738.148C1150.9 741.572 1152.47 744.904 1155.07 750.424C1155.57 751.498 1156.13 752.672 1156.71 753.962L1156.86 754.295L1146.14 751.892C1144.62 751.553 1143.12 752.505 1142.78 754.023C1142.43 755.541 1143.39 757.044 1144.91 757.384L1238.25 778.298C1239.77 778.637 1241.27 777.685 1241.61 776.167C1241.95 774.649 1241 773.146 1239.48 772.807ZM1222.65 754.698C1223.04 753.63 1225.2 752.329 1227.6 751.137C1227.76 751.484 1227.92 751.823 1228.08 752.149C1229.91 756.052 1231.24 758.872 1230.79 760.09C1230.4 761.158 1228.24 762.458 1225.84 763.651C1225.68 763.303 1225.52 762.965 1225.36 762.639C1223.52 758.735 1222.2 755.915 1222.65 754.698ZM1190.39 747.47C1190.78 746.402 1192.94 745.102 1195.34 743.909C1195.5 744.256 1195.66 744.595 1195.82 744.921C1197.65 748.824 1198.98 751.644 1198.53 752.862C1198.14 753.93 1195.98 755.231 1193.58 756.423C1193.42 756.076 1193.26 755.737 1193.1 755.411C1191.27 751.508 1189.94 748.688 1190.39 747.47ZM1157.44 740.089C1157.83 739.02 1159.99 737.72 1162.39 736.527C1162.55 736.875 1162.71 737.214 1162.87 737.54C1164.7 741.443 1166.03 744.263 1165.58 745.481C1165.19 746.549 1163.03 747.849 1160.63 749.042C1160.47 748.694 1160.31 748.356 1160.16 748.03C1158.32 744.127 1156.99 741.307 1157.44 740.089Z" fill="#D80027" fill-opacity="0.05"/>
<path d="M1181.29 662.435C1180.14 667.564 1181.06 672.841 1183.88 677.285C1184.29 677.94 1184.94 678.367 1185.64 678.524C1186.34 678.682 1187.11 678.57 1187.76 678.155C1189.08 677.322 1189.46 675.586 1188.63 674.272C1186.62 671.097 1185.96 667.328 1186.78 663.665C1187.6 660 1189.81 656.872 1192.98 654.859C1197.43 652.043 1200.51 647.662 1201.66 642.53C1202.81 637.402 1201.89 632.124 1199.07 627.681C1198.24 626.367 1196.5 625.978 1195.19 626.811C1193.87 627.644 1193.48 629.379 1194.32 630.693C1196.33 633.869 1196.99 637.638 1196.17 641.3C1195.35 644.966 1193.14 648.093 1189.97 650.107C1185.52 652.922 1182.44 657.304 1181.29 662.435Z" fill="#D80027" fill-opacity="0.05"/>
<path d="M1214.9 669.965C1213.75 675.093 1214.67 680.371 1217.49 684.815C1217.9 685.47 1218.55 685.896 1219.25 686.054C1219.95 686.211 1220.71 686.1 1221.37 685.684C1222.68 684.851 1223.07 683.116 1222.24 681.802C1220.23 678.626 1219.57 674.857 1220.39 671.195C1221.21 667.53 1223.41 664.402 1226.59 662.388C1231.03 659.573 1234.12 655.192 1235.27 650.06C1236.42 644.932 1235.5 639.654 1232.68 635.21C1231.85 633.896 1230.11 633.507 1228.8 634.34C1227.48 635.173 1227.09 636.909 1227.93 638.223C1229.94 641.399 1230.6 645.167 1229.78 648.83C1228.96 652.495 1226.75 655.623 1223.58 657.636C1219.13 660.452 1216.05 664.833 1214.9 669.965Z" fill="#D80027" fill-opacity="0.05"/>
</g>
<g opacity="0.05" clip-path="url(#clip4)">
<path d="M1343.79 383.103C1342.18 382.22 1340.27 382.041 1338.53 382.611L1338.01 382.78C1339.03 377.982 1338.8 372.987 1337.26 368.275C1333.77 357.649 1324.28 350.168 1313.25 349.13C1308.27 334.713 1292.58 326.873 1278.03 331.645C1263.49 336.416 1255.49 352.019 1260.01 366.582C1259.43 366.633 1258.84 366.742 1258.27 366.929C1255.91 367.706 1254.06 369.593 1253.33 371.974L1252.97 373.135C1252.68 374.086 1251.75 374.702 1250.76 374.584L1249.56 374.442C1247.08 374.146 1244.61 375.085 1242.94 376.942C1241.28 378.799 1240.62 381.359 1241.18 383.787L1241.46 384.969C1241.55 385.392 1241.56 386.024 1241.52 386.714C1240.82 386.624 1240.19 386.171 1239.89 385.48L1239.41 384.372C1238.47 382.2 1236.67 380.739 1234.57 380.126L1239.05 365.479C1239.92 362.623 1239.63 359.588 1238.22 356.941C1236.81 354.288 1234.46 352.347 1231.61 351.475C1225.69 349.668 1219.41 353.004 1217.6 358.92L1209.4 385.731C1209.13 386.626 1209.01 387.539 1208.96 388.451C1208.72 388.543 1208.45 388.605 1208.14 388.569L1206.93 388.427C1204.46 388.136 1201.98 389.075 1200.32 390.93C1198.66 392.785 1198 395.344 1198.56 397.771L1198.83 398.953C1199.06 399.927 1198.56 400.921 1197.64 401.316L1196.53 401.796C1194.24 402.783 1192.57 404.831 1192.05 407.267C1191.54 409.71 1192.25 412.254 1193.96 414.082L1194.78 414.963C1195.46 415.695 1195.52 416.807 1194.93 417.609L1194.2 418.581C1192.71 420.583 1192.29 423.192 1193.07 425.56C1193.59 427.139 1194.63 428.449 1195.95 429.387L1193.45 430.209C1191.71 430.779 1190.27 432.059 1189.5 433.723C1188.72 435.401 1188.67 437.353 1189.37 439.069C1198.59 461.852 1217.25 468.689 1242.43 471.943C1245.24 472.307 1247.88 473.578 1249.87 475.528C1251.81 477.434 1252.59 480.459 1251.91 483.476C1251.38 485.747 1252.1 488.041 1253.82 489.612C1255.55 491.183 1257.89 491.685 1260.11 490.958L1320.82 471.04C1323.03 470.314 1324.62 468.516 1325.08 466.233C1325.54 463.946 1324.76 461.674 1322.95 460.113C1320.65 458.127 1319.49 455.228 1319.93 452.546C1320.37 449.798 1321.74 447.208 1323.79 445.249C1342.15 427.711 1353.13 411.15 1347.07 387.331C1346.61 385.534 1345.41 383.994 1343.79 383.103ZM1331.93 370.022C1333.52 374.87 1333.4 380.102 1331.59 384.887L1317.66 389.46L1314.16 378.804C1313.68 377.331 1312.1 376.531 1310.62 377.014C1309.15 377.498 1308.35 379.079 1308.83 380.552L1312.33 391.208L1302.92 394.294C1303.04 393.93 1303.13 393.56 1303.19 393.185C1303.19 393.169 1303.2 393.152 1303.2 393.136C1303.29 392.606 1303.3 392.067 1303.27 391.529C1303.27 391.395 1303.26 391.263 1303.24 391.126C1303.18 390.585 1303.09 390.045 1302.92 389.518C1302.14 387.147 1300.25 385.299 1297.87 384.575L1297.12 384.342C1297.33 384.259 1297.52 384.157 1297.73 384.072C1298.04 383.94 1298.35 383.803 1298.65 383.659C1299.16 383.423 1299.65 383.173 1300.13 382.911C1300.42 382.755 1300.71 382.604 1300.99 382.439C1301.5 382.137 1302 381.809 1302.49 381.477C1302.71 381.328 1302.93 381.192 1303.15 381.036C1303.83 380.544 1304.48 380.032 1305.11 379.487C1305.28 379.335 1305.44 379.171 1305.61 379.015C1306.06 378.605 1306.5 378.188 1306.92 377.749C1307.16 377.504 1307.38 377.248 1307.61 376.995C1307.94 376.624 1308.26 376.251 1308.57 375.863C1308.8 375.576 1309.02 375.284 1309.24 374.988C1309.52 374.614 1309.79 374.232 1310.04 373.846C1310.25 373.529 1310.46 373.215 1310.66 372.891C1310.9 372.504 1311.11 372.108 1311.33 371.712C1311.52 371.374 1311.71 371.037 1311.88 370.691C1312.08 370.293 1312.25 369.883 1312.42 369.477C1312.76 368.709 1313.06 367.929 1313.33 367.131C1313.42 366.849 1313.53 366.572 1313.61 366.285C1313.76 365.771 1313.89 365.25 1314.01 364.731C1314.07 364.469 1314.14 364.207 1314.2 363.942C1314.31 363.387 1314.4 362.829 1314.49 362.268C1314.52 362.046 1314.55 361.826 1314.57 361.602C1314.65 360.991 1314.7 360.379 1314.74 359.76C1314.74 359.628 1314.75 359.492 1314.75 359.361C1314.81 357.905 1314.78 356.439 1314.6 354.968C1322.61 356.414 1329.35 362.134 1331.93 370.022ZM1279.78 336.972C1291.53 333.117 1304.23 339.541 1308.08 351.291C1308.22 351.694 1308.31 352.099 1308.42 352.504C1308.42 352.504 1308.41 352.523 1308.42 352.533C1309.18 355.385 1309.35 358.259 1309.01 361.03C1309 361.057 1309 361.084 1309 361.112C1308.92 361.749 1308.81 362.376 1308.67 363.001C1308.66 363.078 1308.64 363.153 1308.63 363.229C1308.5 363.799 1308.34 364.364 1308.17 364.92C1308.13 365.042 1308.09 365.162 1308.06 365.281C1307.89 365.79 1307.7 366.29 1307.49 366.784C1307.43 366.941 1307.37 367.099 1307.3 367.254C1307.11 367.708 1306.88 368.149 1306.66 368.59C1306.56 368.774 1306.47 368.957 1306.37 369.14C1306.15 369.543 1305.91 369.933 1305.66 370.324C1305.54 370.524 1305.41 370.727 1305.28 370.921C1305.03 371.279 1304.77 371.625 1304.51 371.971C1304.35 372.179 1304.2 372.39 1304.03 372.593C1303.76 372.912 1303.48 373.214 1303.2 373.519C1303.01 373.726 1302.82 373.939 1302.62 374.14C1302.34 374.421 1302.04 374.686 1301.75 374.951C1301.52 375.155 1301.3 375.363 1301.07 375.555C1300.77 375.799 1300.46 376.027 1300.16 376.256C1299.9 376.449 1299.65 376.644 1299.38 376.826C1299.07 377.035 1298.75 377.223 1298.44 377.416C1298.14 377.594 1297.85 377.778 1297.55 377.945C1297.24 378.115 1296.91 378.266 1296.59 378.424C1296.27 378.585 1295.94 378.747 1295.61 378.893C1295.54 378.92 1295.47 378.943 1295.4 378.971L1295.4 378.968C1295.4 378.932 1295.39 378.9 1295.38 378.863C1295.31 378.352 1295.18 377.855 1295.01 377.371C1294.96 377.215 1294.89 377.069 1294.82 376.917C1294.66 376.543 1294.48 376.189 1294.26 375.846C1294.18 375.709 1294.1 375.569 1294 375.438C1293.68 374.989 1293.33 374.56 1292.91 374.185C1291.05 372.523 1288.49 371.866 1286.06 372.426L1284.88 372.699C1284.15 372.867 1283.41 372.628 1282.92 372.112L1286.74 364.554C1287.44 363.171 1286.89 361.487 1285.51 360.787C1284.13 360.088 1282.44 360.64 1281.74 362.023L1279.19 367.072C1278.39 366.545 1277.52 366.122 1276.56 365.92C1275.92 365.785 1275.28 365.746 1274.64 365.776C1274.42 365.785 1274.22 365.845 1274.01 365.873C1273.58 365.927 1273.17 365.985 1272.76 366.11C1272.71 366.126 1272.65 366.121 1272.6 366.138C1272.29 366.239 1272.01 366.396 1271.72 366.536C1271.54 366.622 1271.35 366.684 1271.18 366.782C1270.67 367.072 1270.19 367.412 1269.75 367.818L1268.87 368.641C1268.65 368.851 1268.38 368.992 1268.09 369.074C1268.08 369.08 1268.06 369.081 1268.05 369.087C1267.76 369.16 1267.46 369.174 1267.15 369.117C1266.45 367.854 1265.89 366.565 1265.46 365.275C1261.61 353.525 1268.03 340.829 1279.78 336.972ZM1246.92 383.71L1246.65 382.528C1246.49 381.865 1246.67 381.191 1247.12 380.684C1247.58 380.179 1248.23 379.927 1248.9 380.012L1250.11 380.155C1253.79 380.583 1257.25 378.316 1258.34 374.777L1258.69 373.616C1259.09 372.308 1260.82 371.751 1261.9 372.56L1262.88 373.285C1264.87 374.765 1267.37 375.127 1269.63 374.461C1269.65 374.452 1269.68 374.444 1269.7 374.435C1270.03 374.335 1270.35 374.223 1270.66 374.08C1270.81 374.014 1270.95 373.93 1271.09 373.854C1271.29 373.742 1271.5 373.642 1271.7 373.513C1272.05 373.283 1272.38 373.028 1272.69 372.737L1273.58 371.911C1274.08 371.446 1274.75 371.258 1275.41 371.398C1276.07 371.54 1276.61 371.977 1276.88 372.605L1277.36 373.714C1278.83 377.12 1282.52 378.99 1286.13 378.153L1287.31 377.881C1287.98 377.725 1288.65 377.899 1289.16 378.355C1289.67 378.808 1289.91 379.459 1289.83 380.132L1289.69 381.347C1289.68 381.402 1289.69 381.448 1289.69 381.502C1289.45 383.986 1290.44 386.338 1292.21 387.924C1292.23 387.946 1292.26 387.97 1292.28 387.991C1292.51 388.186 1292.73 388.368 1292.98 388.538C1293.12 388.633 1293.26 388.713 1293.4 388.8C1293.58 388.906 1293.75 389.02 1293.94 389.111C1294.3 389.291 1294.68 389.449 1295.07 389.567L1296.23 389.926C1296.89 390.131 1297.38 390.617 1297.59 391.265C1297.81 391.912 1297.69 392.595 1297.29 393.141L1296.56 394.118C1296.55 394.126 1296.55 394.136 1296.54 394.147C1296.28 394.509 1296.05 394.892 1295.86 395.293C1295.78 395.451 1295.72 395.621 1295.65 395.784C1295.56 396.026 1295.46 396.269 1295.39 396.52C1295.36 396.614 1295.32 396.704 1295.29 396.8L1260.3 408.28C1260.42 407.917 1260.51 407.544 1260.57 407.168C1260.57 407.152 1260.58 407.139 1260.58 407.123C1260.67 406.59 1260.68 406.05 1260.65 405.51C1260.65 405.376 1260.63 405.247 1260.62 405.116C1260.57 404.576 1260.47 404.037 1260.3 403.511L1260.3 403.506C1260.19 403.165 1260.01 402.865 1259.85 402.546C1259.74 402.313 1259.66 402.058 1259.52 401.838C1259.07 401.108 1258.46 400.503 1257.79 399.966C1257.04 399.36 1256.2 398.853 1255.25 398.562L1254.09 398.205C1253.14 397.913 1252.53 396.982 1252.65 395.994L1252.79 394.787C1252.86 394.198 1252.85 393.609 1252.78 393.029C1252.76 392.855 1252.71 392.693 1252.68 392.523C1252.6 392.122 1252.52 391.728 1252.39 391.347C1252.31 391.149 1252.22 390.963 1252.13 390.77C1251.98 390.439 1251.82 390.112 1251.63 389.805C1251.5 389.605 1251.36 389.421 1251.21 389.233C1251.09 389.078 1251 388.905 1250.87 388.756C1250.79 388.667 1250.68 388.616 1250.6 388.534C1250.49 388.42 1250.41 388.285 1250.29 388.176C1250.07 387.98 1249.81 387.843 1249.57 387.674C1249.37 387.533 1249.18 387.379 1248.97 387.257C1248.53 387.003 1248.06 386.817 1247.59 386.658C1247.44 386.61 1247.32 386.518 1247.17 386.48C1247.19 385.58 1247.13 384.613 1246.92 383.71ZM1222.97 360.561C1223.87 357.603 1227.01 355.935 1229.97 356.839C1231.39 357.275 1232.57 358.246 1233.27 359.573C1233.98 360.903 1234.13 362.42 1233.69 363.841L1228.14 381.997C1228.14 381.997 1228.14 381.998 1228.14 382.001L1225.49 390.65C1225.05 392.077 1224.08 393.25 1222.76 393.954C1221.43 394.649 1219.91 394.81 1218.49 394.372C1218.48 394.371 1218.48 394.367 1218.47 394.366C1218 394.222 1217.58 393.999 1217.17 393.748C1217.07 393.684 1216.97 393.614 1216.87 393.543C1216.5 393.277 1216.16 392.979 1215.87 392.635C1215.85 392.612 1215.83 392.596 1215.81 392.573C1215.51 392.205 1215.27 391.79 1215.07 391.355C1215.02 391.245 1214.97 391.132 1214.93 391.02C1214.76 390.575 1214.62 390.11 1214.56 389.617C1214.48 388.871 1214.54 388.111 1214.77 387.376L1222.97 360.561ZM1200.91 425.497L1199.75 425.143C1199.1 424.944 1198.6 424.46 1198.39 423.81C1198.18 423.16 1198.29 422.477 1198.7 421.927L1199.42 420.959C1201.64 417.985 1201.41 413.855 1198.88 411.134L1198.05 410.253C1197.59 409.755 1197.4 409.084 1197.54 408.416C1197.68 407.75 1198.12 407.211 1198.75 406.943L1199.86 406.464C1203.26 404.998 1205.13 401.308 1204.3 397.692L1204.02 396.509C1203.87 395.846 1204.04 395.175 1204.5 394.667C1204.95 394.162 1205.6 393.915 1206.28 393.994L1207.49 394.137C1208.36 394.239 1209.24 394.179 1210.08 393.974C1210.11 394.027 1210.15 394.075 1210.18 394.128C1210.2 394.173 1210.21 394.223 1210.23 394.266C1210.39 394.552 1210.59 394.795 1210.77 395.065C1210.97 395.379 1211.15 395.705 1211.38 396.001C1211.66 396.347 1211.98 396.645 1212.29 396.956C1212.5 397.165 1212.69 397.391 1212.92 397.582C1213.32 397.92 1213.76 398.198 1214.21 398.477C1214.4 398.595 1214.56 398.738 1214.76 398.846C1215.42 399.204 1216.11 399.506 1216.85 399.729C1217.49 399.927 1218.15 400.047 1218.81 400.126C1219.02 400.15 1219.22 400.156 1219.43 400.167C1219.9 400.195 1220.35 400.198 1220.81 400.169C1221.04 400.155 1221.27 400.139 1221.5 400.107C1221.98 400.047 1222.46 399.949 1222.93 399.827C1223.1 399.781 1223.28 399.752 1223.45 399.698C1223.5 399.683 1223.54 399.68 1223.59 399.665C1224.21 399.463 1224.81 399.207 1225.39 398.898C1228.04 397.485 1229.98 395.137 1230.85 392.284L1232.95 385.436C1233.49 385.586 1233.99 385.953 1234.26 386.589L1234.74 387.697C1236.21 391.103 1239.9 392.97 1243.51 392.136L1244.69 391.864C1244.95 391.803 1245.2 391.836 1245.45 391.87C1245.57 391.889 1245.69 391.903 1245.81 391.944C1245.99 392.003 1246.15 392.103 1246.31 392.211C1246.41 392.279 1246.51 392.337 1246.6 392.423C1246.81 392.631 1246.99 392.865 1247.09 393.133C1247.09 393.143 1247.09 393.16 1247.1 393.171C1247.21 393.466 1247.25 393.788 1247.21 394.113L1247.07 395.32C1246.9 396.704 1247.12 398.054 1247.65 399.261C1247.65 399.276 1247.66 399.29 1247.67 399.309C1247.84 399.693 1248.04 400.062 1248.27 400.414C1249.22 401.877 1250.67 403.012 1252.44 403.552L1253.24 403.795L1253.61 403.906C1254.26 404.118 1254.76 404.601 1254.97 405.249C1255.08 405.574 1255.1 405.905 1255.05 406.226C1255.04 406.319 1254.97 406.395 1254.94 406.487C1254.87 406.71 1254.81 406.934 1254.66 407.13L1254.64 407.165L1253.93 408.103C1253.65 408.481 1253.42 408.89 1253.21 409.311C1253.15 409.441 1253.11 409.578 1253.05 409.708C1252.93 410.009 1252.81 410.312 1252.72 410.628C1252.71 410.68 1252.68 410.73 1252.67 410.782L1203.53 426.905C1202.75 426.273 1201.87 425.788 1200.91 425.497ZM1319.92 441.194C1316.99 443.99 1315.03 447.703 1314.39 451.651C1313.64 456.244 1315.52 461.113 1319.33 464.397C1319.61 464.641 1319.62 464.932 1319.58 465.132C1319.54 465.331 1319.42 465.598 1319.06 465.714L1258.36 485.631C1258.01 485.746 1257.75 485.606 1257.6 485.467C1257.45 485.33 1257.29 485.089 1257.38 484.668C1258.49 479.822 1257.12 474.787 1253.8 471.525C1250.94 468.722 1247.16 466.895 1243.15 466.378C1219.26 463.295 1202.8 457.297 1194.57 436.967C1194.41 436.579 1194.51 436.247 1194.59 436.084C1194.67 435.897 1194.85 435.653 1195.2 435.538L1203.58 432.789L1256.12 415.552L1298.74 401.568L1298.91 401.513L1334.57 389.811L1340.28 387.938C1340.63 387.824 1340.91 387.916 1341.1 388.015C1341.25 388.103 1341.53 388.306 1341.63 388.715C1347.05 409.969 1337.34 424.553 1319.92 441.194Z" fill="#D80027"/>
<path d="M1302.3 450.561L1279.1 458.171C1277.63 458.653 1276.83 460.236 1277.31 461.709C1277.8 463.182 1279.38 463.981 1280.85 463.499L1304.04 455.889C1305.51 455.406 1306.32 453.824 1305.83 452.351C1305.35 450.878 1303.77 450.079 1302.3 450.561Z" fill="#D80027"/>
<path d="M1264.09 468.999L1273.11 466.039C1274.58 465.557 1275.38 463.975 1274.9 462.502C1274.41 461.028 1272.83 460.229 1271.36 460.712L1262.34 463.671C1260.87 464.153 1260.06 465.736 1260.55 467.209C1261.03 468.682 1262.61 469.482 1264.09 468.999Z" fill="#D80027"/>
<path d="M1304.92 458.553L1264.96 471.663C1263.49 472.145 1262.69 473.727 1263.17 475.201C1263.65 476.674 1265.24 477.473 1266.71 476.99L1306.67 463.88C1308.14 463.398 1308.94 461.816 1308.46 460.342C1307.97 458.869 1306.39 458.07 1304.92 458.553Z" fill="#D80027"/>
<path d="M1280.51 358.254C1281.2 358.603 1281.96 358.64 1282.64 358.416C1283.33 358.193 1283.92 357.708 1284.27 357.018C1284.97 355.635 1284.42 353.951 1283.04 353.251L1273.03 348.19C1271.65 347.491 1269.96 348.043 1269.26 349.426C1268.56 350.81 1269.11 352.493 1270.5 353.193L1280.51 358.254Z" fill="#D80027"/>
<path d="M1300.52 368.377C1301.21 368.726 1301.97 368.764 1302.65 368.54C1303.34 368.316 1303.93 367.831 1304.28 367.141C1304.98 365.758 1304.43 364.075 1303.05 363.375L1293.04 358.314C1291.66 357.614 1289.97 358.166 1289.27 359.55C1288.57 360.933 1289.12 362.617 1290.51 363.316L1300.52 368.377Z" fill="#D80027"/>
<path d="M1290.18 355.945C1290.86 355.721 1291.46 355.236 1291.81 354.546L1296.87 344.54C1297.57 343.158 1297.02 341.473 1295.63 340.774C1294.25 340.074 1292.57 340.626 1291.87 342.009L1286.8 352.015C1286.1 353.399 1286.66 355.082 1288.04 355.782C1288.73 356.131 1289.5 356.168 1290.18 355.945Z" fill="#D80027"/>
<path d="M1312.41 373.476C1312.9 374.949 1314.48 375.75 1315.95 375.266L1326.61 371.77C1328.08 371.287 1328.88 369.705 1328.4 368.232C1327.91 366.759 1326.33 365.959 1324.86 366.442L1314.2 369.938C1312.73 370.422 1311.93 372.003 1312.41 373.476Z" fill="#D80027"/>
<path d="M1263.57 390.977C1264.25 390.754 1264.85 390.269 1265.2 389.579L1267.88 384.272C1268.58 382.889 1268.03 381.205 1266.64 380.505C1265.26 379.806 1263.58 380.358 1262.88 381.741L1260.19 387.048C1259.49 388.431 1260.05 390.115 1261.43 390.815C1262.12 391.164 1262.89 391.201 1263.57 390.977Z" fill="#D80027"/>
<path d="M1278.26 392.667C1278.95 393.016 1279.72 393.054 1280.4 392.83C1281.09 392.606 1281.68 392.121 1282.03 391.431C1282.73 390.048 1282.18 388.365 1280.8 387.665L1277.26 385.875C1275.87 385.175 1274.19 385.727 1273.49 387.111C1272.79 388.494 1273.34 390.178 1274.73 390.877L1278.26 392.667Z" fill="#D80027"/>
<path d="M1267.25 395.061L1265.46 398.598C1264.76 399.982 1265.31 401.665 1266.69 402.365C1267.38 402.714 1268.15 402.751 1268.83 402.528C1269.51 402.304 1270.11 401.819 1270.46 401.129L1272.25 397.591C1272.95 396.208 1272.4 394.525 1271.01 393.825C1269.63 393.125 1267.94 393.678 1267.25 395.061Z" fill="#D80027"/>
</g>
<g opacity="0.05" clip-path="url(#clip5)">
<path d="M1159.77 170.25C1159.35 170.76 1158.83 170.835 1158.37 170.745C1157.91 170.655 1157.49 170.393 1157.29 169.76L1155.22 162.934L1152.75 175.458C1152.59 176.231 1151.57 176.445 1150.66 176.265C1149.71 176.079 1148.88 175.498 1149.03 174.725L1152.55 156.854C1152.82 155.482 1153.83 155.176 1154.78 155.363C1156.12 155.627 1156.67 156.032 1157.28 157.904L1159.53 165.003L1164.31 159.291C1165.59 157.791 1166.27 157.629 1167.62 157.894C1168.56 158.08 1169.38 158.746 1169.11 160.118L1165.59 177.99C1165.43 178.763 1164.41 178.977 1163.5 178.796C1162.55 178.61 1161.72 178.03 1161.87 177.257L1164.29 164.962L1159.77 170.25Z" fill="#D80027"/>
<path d="M1178.06 169.279L1182.4 170.136C1183.14 170.282 1183.43 171.082 1183.28 171.854C1183.15 172.511 1182.63 173.211 1181.83 173.053L1177.48 172.196L1176.35 177.943L1184.44 179.538C1185.18 179.685 1185.46 180.541 1185.28 181.428C1185.13 182.2 1184.6 182.957 1183.8 182.799L1173.62 180.792C1172.79 180.628 1172.07 180.069 1172.22 179.297L1175.88 160.74C1176.03 159.968 1176.91 159.725 1177.74 159.888L1187.92 161.895C1188.72 162.053 1188.93 162.957 1188.77 163.728C1188.6 164.615 1188.02 165.303 1187.27 165.156L1179.18 163.56L1178.06 169.279Z" fill="#D80027"/>
<path d="M1200.44 184.862L1196.56 172.155L1194.29 183.65C1194.14 184.423 1193.12 184.637 1192.2 184.456C1191.26 184.27 1190.42 183.69 1190.57 182.917L1194.23 164.359C1194.39 163.559 1195.38 163.368 1196.32 163.554C1197.67 163.819 1198.15 164.212 1198.71 166.073L1202.12 177.827L1204.39 166.332C1204.55 165.532 1205.53 165.368 1206.47 165.554C1207.39 165.735 1208.26 166.264 1208.11 167.065L1204.44 185.651C1204.29 186.423 1203.27 186.638 1202.35 186.458C1201.47 186.283 1200.75 185.845 1200.44 184.862Z" fill="#D80027"/>
<path d="M1224.66 170.33C1224.82 169.529 1225.8 169.367 1226.75 169.553C1227.66 169.733 1228.54 170.262 1228.38 171.062L1225.74 184.445C1224.8 189.22 1221.42 190.395 1217.59 189.64C1213.73 188.879 1211.07 186.513 1212.01 181.738L1214.65 168.356C1214.81 167.556 1215.79 167.393 1216.74 167.579C1217.65 167.76 1218.53 168.289 1218.37 169.089L1215.73 182.471C1215.29 184.702 1216.26 185.991 1218.23 186.381C1220.2 186.77 1221.58 185.942 1222.02 183.712L1224.66 170.329L1224.66 170.33Z" fill="#D80027"/>
<path d="M1227 197.199L1213.41 194.519C1212.07 194.256 1210.78 195.124 1210.52 196.457C1210.25 197.791 1211.12 199.084 1212.46 199.348L1226.05 202.028C1227.38 202.291 1228.68 201.424 1228.94 200.089C1229.2 198.756 1228.34 197.462 1227 197.199Z" fill="#D80027"/>
<path d="M1202.17 192.304L1147.16 181.457C1145.83 181.194 1144.53 182.062 1144.27 183.395C1144.01 184.729 1144.88 186.022 1146.21 186.285L1201.22 197.132C1202.56 197.395 1203.85 196.529 1204.11 195.194C1204.37 193.861 1203.51 192.567 1202.17 192.304Z" fill="#D80027"/>
<path d="M1234.27 160.33L1154.43 144.588C1153.1 144.325 1151.8 145.193 1151.54 146.526C1151.28 147.859 1152.15 149.153 1153.48 149.416L1233.32 165.159C1234.65 165.422 1235.95 164.554 1236.21 163.22C1236.47 161.887 1235.61 160.593 1234.27 160.33Z" fill="#D80027"/>
<path d="M1238.83 130.128L1236.49 129.666C1238.86 112.851 1229.4 96.7631 1214.12 90.3843L1215.47 86.0216C1215.91 84.5979 1215.72 83.0481 1214.96 81.7705C1214.19 80.4917 1212.92 79.5933 1211.46 79.3052L1206.3 78.2882C1204.83 77.9998 1203.31 78.3479 1202.12 79.2396C1200.93 80.1328 1200.17 81.4957 1200.03 82.9784L1199.62 87.5248C1183.07 87.6272 1168.21 98.9185 1164.02 115.377L1161.68 114.915C1159.61 114.506 1157.59 115.86 1157.18 117.932L1156.2 122.915C1155.79 124.987 1157.14 127.006 1159.21 127.415L1236.36 142.627C1238.44 143.036 1240.46 141.682 1240.86 139.609L1241.85 134.627C1242.26 132.556 1240.9 130.537 1238.83 130.128ZM1205.07 83.1791C1205.15 83.119 1205.24 83.0981 1205.35 83.118L1210.5 84.135C1210.6 84.1546 1210.68 84.2085 1210.73 84.2951C1210.78 84.3829 1210.8 84.4767 1210.77 84.5727L1209.46 88.7979C1208.66 88.5827 1207.85 88.3897 1207.02 88.2265C1206.19 88.0631 1205.36 87.9325 1204.54 87.8267L1204.94 83.4234C1204.95 83.3232 1204.99 83.2406 1205.07 83.1791ZM1236.25 137.588L1161.24 122.797L1161.8 119.956L1171.97 121.962C1173.31 122.225 1174.6 121.357 1174.86 120.024C1175.13 118.691 1174.26 117.397 1172.93 117.133L1168.86 116.332C1173.13 100.114 1189.39 89.7679 1206.06 93.0561C1222.74 96.3446 1233.86 112.087 1231.65 128.712L1184.16 119.349C1182.83 119.086 1181.53 119.954 1181.27 121.287C1181.01 122.62 1181.87 123.914 1183.21 124.177L1236.81 134.746L1236.25 137.588Z" fill="#D80027"/>
<path d="M1270.73 66.3176L1156.39 43.773C1153 43.1047 1149.7 45.3192 1149.03 48.7089L1148.17 53.0703L1145.92 52.6261C1141.77 51.8087 1137.74 54.5173 1136.92 58.6625C1136.1 62.8076 1138.81 66.8461 1142.95 67.6634L1145.21 68.1076L1143.17 78.432L1140.92 77.9878C1136.77 77.1705 1132.74 79.8778 1131.92 84.0242C1131.1 88.1694 1133.81 92.2066 1137.95 93.0239L1140.21 93.4681L1138.17 103.794L1135.92 103.35C1131.77 102.532 1127.73 105.24 1126.92 109.386C1126.1 113.531 1128.81 117.568 1132.95 118.386L1135.2 118.83L1133.17 129.155L1130.92 128.711C1126.77 127.894 1122.73 130.601 1121.92 134.746C1121.1 138.893 1123.81 142.93 1127.95 143.747L1130.2 144.192L1128.17 154.517L1125.92 154.073C1121.77 153.256 1117.73 155.963 1116.92 160.108C1116.1 164.255 1118.81 168.292 1122.95 169.109L1125.2 169.553L1123.17 179.879L1120.91 179.435C1116.77 178.617 1112.73 181.325 1111.91 185.47C1111.1 189.615 1113.8 193.654 1117.95 194.471L1120.2 194.915L1119.34 199.276C1118.67 202.666 1120.89 205.969 1124.28 206.637L1238.61 229.181C1242 229.85 1245.31 227.635 1245.98 224.246L1275.66 73.6782C1276.33 70.2885 1274.12 66.9859 1270.73 66.3176V66.3176ZM1146.16 63.2788L1143.91 62.8349C1142.42 62.5426 1141.45 61.0982 1141.75 59.6146C1142.04 58.1322 1143.48 57.1636 1144.97 57.4559L1147.22 57.8998L1146.16 63.2788ZM1141.16 88.6393L1138.9 88.1954C1137.42 87.9031 1136.45 86.4587 1136.75 84.9763C1137.04 83.4927 1138.48 82.5253 1139.97 82.8176L1142.22 83.2616L1141.16 88.6393ZM1136.16 114.001L1133.9 113.557C1132.42 113.265 1131.45 111.82 1131.75 110.338C1132.04 108.854 1133.48 107.886 1134.96 108.178L1137.22 108.622L1136.16 114.001ZM1131.15 139.363L1128.9 138.919C1127.42 138.627 1126.45 137.182 1126.74 135.699C1127.04 134.216 1128.48 133.248 1129.96 133.54L1132.22 133.984L1131.15 139.363ZM1126.15 164.723L1123.9 164.279C1122.42 163.987 1121.45 162.544 1121.74 161.06C1122.04 159.578 1123.48 158.609 1124.96 158.902L1127.21 159.346L1126.15 164.723ZM1121.15 190.085L1118.9 189.641C1117.42 189.349 1116.45 187.904 1116.74 186.422C1117.04 184.938 1118.48 183.971 1119.96 184.263L1122.21 184.707L1121.15 190.085ZM1241.15 223.292C1241 224.02 1240.29 224.496 1239.57 224.353L1125.23 201.808C1124.5 201.665 1124.03 200.955 1124.17 200.227L1153.86 49.661C1154 48.9341 1154.71 48.458 1155.44 48.6016L1269.78 71.1461C1270.5 71.2897 1270.98 71.999 1270.83 72.7259L1241.15 223.292Z" fill="#D80027"/>
</g>
<defs>
<linearGradient id="paint0_linear" x1="725.333" y1="-65" x2="725.333" y2="807.31" gradientUnits="userSpaceOnUse">
<stop stop-color="#E5E5E5"/>
<stop offset="1" stop-color="white"/>
</linearGradient>
<clipPath id="clip0">
<rect width="166" height="166" fill="white" transform="translate(43.5864 631.59) rotate(-12.8803)"/>
</clipPath>
<clipPath id="clip1">
<rect width="166" height="166" fill="white" transform="translate(210.822 356) rotate(8.94902)"/>
</clipPath>
<clipPath id="clip2">
<rect width="166" height="166" fill="white" transform="translate(24.5626 189.689) rotate(-15.774)"/>
</clipPath>
<clipPath id="clip3">
<rect width="166" height="166" fill="white" transform="translate(1167.29 606) rotate(12.6282)"/>
</clipPath>
<clipPath id="clip4">
<rect width="166" height="166" fill="white" transform="translate(1163 358.75) rotate(-18.1644)"/>
</clipPath>
<clipPath id="clip5">
<rect width="166" height="166" fill="white" transform="translate(1127.11 38) rotate(11.1544)"/>
</clipPath>
</defs>
</svg>
